<svg xmlns="http://www.w3.org/2000/svg" xmlns:xlink="http://www.w3.org/1999/xlink"><defs>
<radialGradient id="paint0_radial" cx="0" cy="0" r="1" gradientUnits="userSpaceOnUse" gradientTransform="translate(9.38479 8.34769) rotate(-29.408) scale(14.3064 11.3486)">
<stop offset="0.2479" stop-color="#FF0000"/>
<stop offset="0.8639" stop-color="#C20000"/>
</radialGradient>
<radialGradient id="paint1_radial" cx="0" cy="0" r="1" gradientUnits="userSpaceOnUse" gradientTransform="translate(9.7385 7.47018) rotate(-29.408) scale(12.3173 9.77078)">
<stop offset="0.2479" stop-color="#FF0000"/>
<stop offset="1" stop-color="#C20000"/>
</radialGradient>
<radialGradient id="paint2_radial" cx="0" cy="0" r="1" gradientUnits="userSpaceOnUse" gradientTransform="translate(9.38479 8.34769) rotate(-29.408) scale(14.3064 11.3486)">
<stop stop-color="white" stop-opacity="0.25"/>
<stop offset="1" stop-color="white" stop-opacity="0"/>
</radialGradient>
<radialGradient id="paint3_radial" cx="0" cy="0" r="1" gradientUnits="userSpaceOnUse" gradientTransform="translate(14.5277 13.2044) rotate(-26.296) scale(10.4431 5.16038)">
<stop stop-color="#BD2719" stop-opacity="0.25"/>
<stop offset="1" stop-color="#BD2719" stop-opacity="0"/>
</radialGradient>
<radialGradient id="paint4_radial" cx="0" cy="0" r="1" gradientUnits="userSpaceOnUse" gradientTransform="translate(7.34746 7.19453) rotate(-21.6908) scale(3.71252 2.30616)">
<stop stop-color="white"/>
<stop offset="1" stop-color="white" stop-opacity="0"/>
</radialGradient>
<radialGradient id="paint5_radial" cx="0" cy="0" r="1" gradientUnits="userSpaceOnUse" gradientTransform="translate(14.6004 6.84619) rotate(-40.7634) scale(3.07376 1.9095)">
<stop stop-color="white"/>
<stop offset="1" stop-color="white" stop-opacity="0"/>
</radialGradient>
<linearGradient id="paint6_linear" x1="13.8868" y1="26.8498" x2="15.6583" y2="2.96408" gradientUnits="userSpaceOnUse">
<stop stop-color="#860805"/>
<stop offset="1" stop-color="#BD2719" stop-opacity="0"/>
</linearGradient>
</defs><symbol id="clock" viewBox="0 0 16 16">
  <path d="M8 3.5a.5.5 0 0 0-1 0V9a.5.5 0 0 0 .252.434l3.5 2a.5.5 0 0 0 .496-.868L8 8.71V3.5z"/>
  <path d="M8 16A8 8 0 1 0 8 0a8 8 0 0 0 0 16zm7-8A7 7 0 1 1 1 8a7 7 0 0 1 14 0z"/>
</symbol><symbol id="clouds-fill" viewBox="0 0 16 16">
  <path d="M11.473 9a4.5 4.5 0 0 0-8.72-.99A3 3 0 0 0 3 14h8.5a2.5 2.5 0 1 0-.027-5z"/>
  <path d="M14.544 9.772a3.506 3.506 0 0 0-2.225-1.676 5.502 5.502 0 0 0-6.337-4.002 4.002 4.002 0 0 1 7.392.91 2.5 2.5 0 0 1 1.17 4.769z"/>
</symbol><symbol id="coin" viewBox="0 0 16 16">
  <path d="M5.5 9.511c.076.954.83 1.697 2.182 1.785V12h.6v-.709c1.4-.098 2.218-.846 2.218-1.932 0-.987-.626-1.496-1.745-1.76l-.473-.112V5.57c.6.068.982.396 1.074.85h1.052c-.076-.919-.864-1.638-2.126-1.716V4h-.6v.719c-1.195.117-2.01.836-2.01 1.853 0 .9.606 1.472 1.613 1.707l.397.098v2.034c-.615-.093-1.022-.43-1.114-.9H5.5zm2.177-2.166c-.59-.137-.91-.416-.91-.836 0-.47.345-.822.915-.925v1.76h-.005zm.692 1.193c.717.166 1.048.435 1.048.91 0 .542-.412.914-1.135.982V8.518l.087.02z"/>
  <path d="M8 15A7 7 0 1 1 8 1a7 7 0 0 1 0 14zm0 1A8 8 0 1 0 8 0a8 8 0 0 0 0 16z"/>
  <path d="M8 13.5a5.5 5.5 0 1 1 0-11 5.5 5.5 0 0 1 0 11zm0 .5A6 6 0 1 0 8 2a6 6 0 0 0 0 12z"/>
</symbol><symbol id="heart" viewBox="0 0 24 24">
<path d="M16.1315 3.71436C14.4172 3.71436 12.9029 4.57721 12 5.8915C11.0972 4.57721 9.58289 3.71436 7.86861 3.71436C5.10289 3.71436 2.85718 5.96007 2.85718 8.72578C2.85718 14.8344 12 20.3258 12 20.3258C12 20.3258 21.1429 14.8344 21.1429 8.72578C21.1429 5.96007 18.8972 3.71436 16.1315 3.71436Z" fill="url(#paint0_radial)"/>
<path opacity="0.5" d="M18.2056 4.16016C20.9485 8.53158 18.4228 14.2687 15.3885 15.8973C12.0399 17.6973 9.74847 16.8516 5.00562 14.1602C7.70847 17.743 11.9999 20.3202 11.9999 20.3202C11.9999 20.3202 21.1428 14.8287 21.1428 8.72016C21.1428 6.6973 19.937 4.94873 18.2056 4.16016Z" fill="url(#paint1_radial)"/>
<path opacity="0.5" d="M16.1315 3.71436C14.4172 3.71436 12.9029 4.57721 12 5.8915C11.0972 4.57721 9.58289 3.71436 7.86861 3.71436C5.10289 3.71436 2.85718 5.96007 2.85718 8.72578C2.85718 14.8344 12 20.3258 12 20.3258C12 20.3258 21.1429 14.8344 21.1429 8.72578C21.1429 5.96007 18.8972 3.71436 16.1315 3.71436Z" fill="url(#paint2_radial)"/>
<path opacity="0.5" d="M16.1315 3.71436C14.4172 3.71436 12.9029 4.57721 12 5.8915C11.0972 4.57721 9.58289 3.71436 7.86861 3.71436C5.10289 3.71436 2.85718 5.96007 2.85718 8.72578C2.85718 14.8344 12 20.3258 12 20.3258C12 20.3258 21.1429 14.8344 21.1429 8.72578C21.1429 5.96007 18.8972 3.71436 16.1315 3.71436Z" fill="url(#paint3_radial)"/>
<path opacity="0.24" d="M10.7486 5.74883C11.2514 6.93169 10.1371 8.5374 8.25714 9.33169C6.37714 10.126 4.45143 9.8174 3.94857 8.64026C3.44571 7.46312 4.56 5.85169 6.44 5.0574C8.32 4.26312 10.2457 4.56597 10.7486 5.74883Z" fill="url(#paint4_radial)"/>
<path opacity="0.24" d="M16.8742 4.78885C17.5885 5.57742 17.1485 7.13742 15.8971 8.26885C14.6456 9.40028 13.0513 9.68028 12.3371 8.8917C11.6228 8.10313 12.0628 6.54313 13.3142 5.41171C14.5656 4.28028 16.1599 4.00028 16.8742 4.78885Z" fill="url(#paint5_radial)"/>
<path opacity="0.32" d="M16.2229 5.04578C18.7372 5.90293 21.1372 9.61721 17.0801 14.2458C14.6515 17.0172 12.0001 18.4172 8.62866 17.8686C10.4515 19.3886 12.0058 20.3258 12.0058 20.3258C12.0058 20.3258 21.1487 14.8344 21.1487 8.72578C21.1429 5.96007 18.8972 3.71436 16.1315 3.71436C14.4172 3.71436 12.9029 4.57721 12.0001 5.8915C12.0001 5.8915 14.3829 4.41721 16.2229 5.04578Z" fill="url(#paint6_linear)"/>

</symbol></svg>